<?xml version="1.0" standalone="no"?>
<!DOCTYPE svg PUBLIC "-//W3C//DTD SVG 20010904//EN"
 "http://www.w3.org/TR/2001/REC-SVG-20010904/DTD/svg10.dtd">
<svg version="1.0" xmlns="http://www.w3.org/2000/svg"
 width="676.000000pt" height="676.000000pt" viewBox="0 0 676.000000 676.000000"
 preserveAspectRatio="xMidYMid meet">
<metadata>
Created by potrace 1.11, written by Peter Selinger 2001-2013
</metadata>
<g transform="translate(0.000000,676.000000) scale(0.100000,-0.100000)"
fill="#000000" stroke="none">
<path d="M2847 4709 c-279 -15 -517 -58 -690 -124 l-98 -38 -337 -315 c-475
-445 -512 -482 -512 -513 0 -43 36 -79 78 -79 34 0 54 16 281 230 134 127 245
229 246 228 1 -2 -4 -50 -12 -108 -10 -76 -13 -170 -10 -345 4 -206 9 -256 30
-357 28 -132 74 -242 121 -286 67 -65 218 -116 436 -147 l105 -15 -200 5
c-161 4 -524 7 -582 5 -7 0 -13 -11 -13 -25 0 -18 6 -26 23 -29 91 -19 2144
-23 2902 -5 401 9 493 13 505 25 11 11 12 19 4 31 -9 14 -33 16 -195 14 -101
-1 -211 -4 -244 -6 l-60 -5 78 20 c95 24 121 37 170 86 74 75 126 221 147 416
21 203 8 760 -21 856 -7 23 -10 44 -7 47 3 3 106 -40 230 -95 124 -55 238
-100 252 -100 34 0 76 41 76 74 0 49 -39 72 -345 206 -165 73 -363 160 -440
195 l-140 63 -230 26 c-579 64 -1135 87 -1548 65z m893 -169 c205 -14 574 -47
728 -65 141 -18 196 -40 272 -111 25 -24 58 -67 72 -96 47 -96 52 -146 52
-538 1 -389 -4 -440 -53 -571 -31 -81 -71 -115 -156 -133 -192 -39 -522 -58
-1015 -58 -985 1 -1493 50 -1587 155 -59 65 -93 240 -100 513 -10 373 45 641
148 728 119 101 368 161 765 186 164 10 655 5 874 -10z"/>
<path d="M2372 4439 c-108 -21 -207 -92 -242 -173 -36 -81 -37 -197 -3 -231
21 -22 59 -18 77 6 10 15 13 36 9 73 -4 40 -1 64 15 98 40 91 129 128 309 128
106 0 113 1 127 23 20 29 10 66 -21 78 -30 11 -212 10 -271 -2z"/>
<path d="M4214 4395 c-13 -21 -15 -31 -6 -50 12 -27 26 -31 123 -39 185 -14
310 -128 326 -295 7 -71 25 -101 61 -101 40 0 52 17 52 75 0 153 -79 291 -211
368 -60 35 -186 67 -265 67 -57 0 -65 -3 -80 -25z"/>
<path d="M3003 4042 c35 -39 11 -92 -42 -92 -34 0 -48 15 -53 55 l-3 30 -23
-35 c-15 -24 -22 -51 -22 -84 0 -43 4 -53 40 -88 39 -39 42 -40 97 -36 49 4
60 9 90 41 27 31 33 44 33 83 0 56 -28 107 -68 122 -66 25 -68 25 -49 4z"/>
<path d="M3880 3861 c0 -5 5 -13 10 -16 16 -10 11 -51 -8 -68 -33 -30 -74 -20
-91 23 -9 25 -9 25 -25 -12 -20 -47 -20 -71 0 -114 32 -68 125 -95 190 -55 35
21 64 75 64 118 0 34 -31 87 -62 106 -30 19 -78 30 -78 18z"/>
<path d="M2137 3783 c-11 -10 -8 -41 3 -48 15 -10 480 -57 496 -51 8 3 14 17
14 30 0 32 8 30 -256 56 -233 22 -248 23 -257 13z"/>
<path d="M4385 3631 c-94 -9 -176 -20 -183 -25 -15 -9 -16 -42 -1 -51 12 -8
394 25 427 37 17 6 22 14 20 31 -4 29 -40 30 -263 8z"/>
<path d="M2328 3576 c-103 -7 -182 -16 -189 -23 -6 -6 -8 -20 -4 -32 8 -25 -1
-25 284 -7 117 8 218 19 223 24 5 5 8 18 6 28 -4 24 -71 26 -320 10z"/>
<path d="M3240 3543 c0 -27 7 -61 15 -77 15 -29 15 -30 -27 -73 -54 -55 -99
-71 -134 -48 -14 9 -40 37 -57 61 -27 38 -36 44 -61 42 -62 -6 -60 -58 5 -132
53 -60 85 -76 152 -76 41 0 63 6 98 28 24 16 50 36 58 46 13 15 17 12 46 -32
93 -138 226 -177 363 -108 62 32 88 65 73 95 -18 33 -44 33 -106 1 -63 -33
-119 -39 -164 -16 -33 18 -84 73 -107 117 -16 31 -15 32 19 60 32 26 74 105
63 117 -6 5 -191 41 -218 42 -15 0 -18 -9 -18 -47z"/>
<path d="M4184 3475 c-10 -26 3 -42 38 -48 18 -3 104 -13 190 -23 127 -13 161
-14 173 -4 8 7 15 15 15 19 -1 25 -30 33 -181 51 -200 24 -228 25 -235 5z"/>
<path d="M2570 3430 c-30 -10 -128 -42 -218 -70 -166 -52 -190 -67 -159 -97
15 -15 35 -10 238 53 123 38 231 76 242 84 25 21 13 50 -22 49 -14 0 -51 -9
-81 -19z"/>
<path d="M4153 3324 c-11 -28 20 -43 199 -95 146 -43 180 -50 193 -39 20 17
19 37 -3 49 -28 15 -334 101 -360 101 -12 0 -25 -7 -29 -16z"/>
<path d="M4682 2428 c-9 -9 -12 -72 -12 -244 0 -249 2 -259 52 -252 20 3 23 9
26 60 2 34 9 61 18 69 8 6 16 10 17 8 1 -2 29 -34 61 -71 60 -71 95 -86 115
-50 12 23 2 41 -67 120 l-56 63 57 53 c61 56 62 58 47 87 -19 34 -52 22 -115
-41 -33 -33 -63 -60 -67 -60 -4 0 -9 60 -10 133 l-3 132 -25 3 c-14 2 -31 -3
-38 -10z"/>
<path d="M3715 2398 c-3 -7 -4 -115 -3 -238 l3 -225 23 -3 c40 -6 52 14 52 88
l0 68 85 3 c85 4 85 4 127 47 42 41 43 44 43 110 0 71 -12 98 -64 138 -22 16
-46 20 -143 22 -93 3 -119 1 -123 -10z m227 -86 c16 -15 23 -34 23 -62 0 -60
-29 -83 -110 -88 l-65 -4 0 92 0 92 65 -4 c51 -3 70 -9 87 -26z"/>
<path d="M1872 2388 c-9 -9 -12 -71 -12 -219 0 -174 2 -209 15 -219 33 -27 40
4 45 191 l5 179 58 -74 c72 -91 90 -108 109 -101 9 4 47 45 84 93 l69 86 3
-184 c2 -184 7 -205 39 -193 10 4 13 50 13 223 0 208 -1 219 -20 225 -30 10
-53 -9 -126 -100 -37 -47 -70 -85 -73 -85 -3 1 -31 32 -61 71 -94 122 -117
138 -148 107z"/>
<path d="M4100 2277 c-17 -8 -25 -21 -25 -37 0 -24 3 -25 65 -25 74 0 110 -10
110 -31 0 -11 -15 -14 -62 -14 -77 0 -122 -24 -144 -76 -43 -104 75 -198 192
-154 18 7 30 7 40 -1 7 -6 23 -9 36 -7 22 3 23 6 26 130 3 144 -6 175 -61 208
-38 23 -137 27 -177 7z m160 -196 c0 -20 -62 -81 -83 -81 -22 0 -57 31 -57 50
0 29 39 50 92 50 40 0 48 -3 48 -19z"/>
<path d="M2460 2257 c-120 -64 -118 -243 4 -298 69 -31 191 -14 191 26 0 14
-6 19 -20 17 -107 -14 -123 -14 -153 2 -30 16 -52 43 -52 65 0 6 48 11 127 13
l128 3 9 26 c15 44 -28 118 -84 147 -56 28 -96 28 -150 -1z m143 -47 c14 -11
30 -33 35 -50 l11 -30 -110 0 c-125 0 -134 7 -75 66 41 41 97 47 139 14z"/>
<path d="M2859 2271 c-68 -22 -119 -91 -119 -161 0 -51 36 -116 78 -142 51
-31 133 -31 184 0 43 27 78 92 78 146 0 48 -35 111 -76 137 -36 22 -107 32
-145 20z m125 -72 c61 -53 58 -130 -6 -184 -84 -71 -213 23 -178 130 28 84
119 111 184 54z"/>
<path d="M3112 2263 c-11 -22 24 -291 41 -311 5 -7 22 -12 36 -10 21 2 34 18
67 82 l42 80 37 -75 c39 -76 49 -89 75 -89 34 0 41 20 60 156 24 164 24 170 7
177 -28 11 -37 -12 -52 -129 -9 -65 -17 -123 -19 -129 -1 -5 -20 24 -42 65
-32 62 -44 76 -66 78 -25 3 -31 -4 -66 -74 -21 -42 -41 -73 -44 -68 -3 5 -11
61 -18 124 -12 108 -21 140 -41 140 -5 0 -12 -8 -17 -17z"/>
<path d="M4456 2257 c-71 -40 -104 -113 -86 -191 20 -90 87 -136 197 -136 70
0 73 1 79 26 9 35 -1 41 -75 46 -57 4 -67 8 -92 36 -70 78 -12 172 105 172 36
0 48 4 56 21 19 35 -3 49 -79 49 -50 0 -76 -6 -105 -23z"/>
</g>
</svg>
